<?xml version="1.0" encoding="UTF-8" standalone="no"?>
<svg
   xmlns:dc="http://purl.org/dc/elements/1.1/"
   xmlns:cc="http://creativecommons.org/ns#"
   xmlns:rdf="http://www.w3.org/1999/02/22-rdf-syntax-ns#"
   xmlns:svg="http://www.w3.org/2000/svg"
   xmlns="http://www.w3.org/2000/svg"
   xmlns:sodipodi="http://sodipodi.sourceforge.net/DTD/sodipodi-0.dtd"
   xmlns:inkscape="http://www.inkscape.org/namespaces/inkscape"
   inkscape:version="1.0 (4035a4fb49, 2020-05-01)"
   sodipodi:docname="trailhead.svg"
   viewBox="0 0 163 157"
   height="157"
   width="163"
   id="svg10"
   version="1.1">
  <metadata
     id="metadata16">
    <rdf:RDF>
      <cc:Work
         rdf:about="">
        <dc:format>image/svg+xml</dc:format>
        <dc:type
           rdf:resource="http://purl.org/dc/dcmitype/StillImage" />
        <dc:title></dc:title>
      </cc:Work>
    </rdf:RDF>
  </metadata>
  <defs
     id="defs14" />
  <sodipodi:namedview
     inkscape:current-layer="g18"
     inkscape:window-maximized="0"
     inkscape:window-y="762"
     inkscape:window-x="1897"
     inkscape:cy="127.57768"
     inkscape:cx="25.674381"
     inkscape:zoom="1.6050955"
     showgrid="false"
     id="namedview12"
     inkscape:window-height="976"
     inkscape:window-width="954"
     inkscape:pageshadow="2"
     inkscape:pageopacity="0"
     guidetolerance="10"
     gridtolerance="10"
     objecttolerance="10"
     borderopacity="1"
     bordercolor="#666666"
     pagecolor="#ffffff" />
  <g
     id="g18"
     inkscape:label="Image"
     inkscape:groupmode="layer">
    <path
       id="path452"
       d="M 61.9482,149.17777 C 50.505034,146.965 42.452295,144.62922 33.46735,140.9166 23.058939,136.6158 11.89327,130.19592 11.064277,128.03559 c -0.338843,-0.883 -0.616077,-5.3611 -0.616077,-9.95132 0,-22.97122 6.700212,-46.35604 18.514741,-64.61944 5.511227,-8.519481 18.632921,-22.311515 27.398091,-28.797758 7.589337,-5.616124 21.308747,-13.073374 24.051623,-13.073374 2.184432,0 13.156002,5.668111 21.035545,10.867341 6.94237,4.580848 19.97533,16.944755 25.43856,24.132661 15.27067,20.09144 23.56144,45.38492 23.56144,71.88123 0,5.48812 -0.46477,9.31824 -1.25,10.30105 -3.8585,4.82944 -25.28499,14.46967 -40.9534,18.42581 -12.676181,3.20062 -35.02959,4.15468 -46.2966,1.97598 z m 21.291833,-11.89774 c 1.258619,-2.37252 2.022637,-5.00624 1.697818,-5.8527 -0.324818,-0.84647 -2.778504,-2.5638 -5.452635,-3.81629 -6.51872,-3.05321 -8.544533,-6.81103 -7.761545,-14.39746 l 0.583422,-5.65281 -26.179446,0.26646 -26.179447,0.26647 -0.287262,8.05315 -0.287262,8.05316 8.787262,4.59914 c 14.849554,7.77207 31.753878,12.4 46.288979,12.67261 6.501717,0.12194 6.501717,0.12194 8.790116,-4.19173 z M 50.508906,127.8437 c 1.325134,-1.5125 2.664451,-3.08838 2.976261,-3.50195 0.311809,-0.41357 2.094325,0.82393 3.961146,2.75 l 3.394221,3.50195 h -6.370481 -6.370481 z m -14.058819,-9.75195 c 1.866821,-1.92607 3.649337,-3.16357 3.961146,-2.75 0.31181,0.41357 1.651127,1.98945 2.976261,3.50195 l 2.409334,2.75 h -6.370481 -6.370481 z m 75.998113,18.85853 c 4.675,-1.42859 13.12991,-4.84214 18.78869,-7.58566 l 10.28868,-4.98823 -0.28868,-8.14134 -0.28869,-8.14135 -27.6327,-0.26561 -27.6327,-0.26562 -3.171938,3.61264 c -1.744567,1.98695 -3.030779,4.35648 -2.858249,5.26562 0.17253,0.90913 2.523948,2.77797 5.225373,4.15297 7.926923,4.03473 9.999045,8.38004 8.160096,17.11201 l -0.760688,3.612 5.835406,-0.885 c 3.20947,-0.48674 9.6604,-2.05384 14.3354,-3.48243 z m -2.02153,-15.32634 c 3.05228,-4.28653 3.36003,-4.30795 7.05924,-0.49133 l 3.35462,3.46109 h -6.26426 -6.26426 z M 50.625485,74.593699 C 69.470413,47.07414 69.966793,46.6434 75.176056,53.289519 c 1.639951,2.092301 5.597781,7.75394 8.795179,12.581431 3.197398,4.82749 6.136692,8.652489 6.531764,8.5 0.395073,-0.15249 2.251004,-2.30225 4.124292,-4.77725 6.060849,-8.00763 6.641019,-7.653581 20.356159,12.422269 l 11.96475,17.513681 6.25,0.032 c 6.07577,0.0311 6.25,-0.0406 6.25,-2.573631 0,-3.82078 -2.59292,-13.186819 -5.90133,-21.316519 C 124.40527,53.208 107.99502,35.027828 86.966106,24.066811 L 80.341737,20.613955 75.144969,23.23835 C 58.234735,31.778104 42.024728,47.78194 32.04823,65.786959 28.16259,72.79955 22.148818,89.403969 21.146225,95.888119 L 20.559524,99.68254 27.203912,99.38812 33.8483,99.0937 Z M 79.322498,91.60602 c 3.437674,-5.06738 5.148397,-8.5108 4.747403,-9.55577 C 83.129867,79.60056 71.215634,62.5937 70.439527,62.5937 c -0.731076,0 -23.745765,33.1965 -24.652047,35.558229 -0.466367,1.21534 1.701543,1.436621 13.803731,1.408981 L 73.9482,99.52811 Z m 35.766512,6.494019 c -0.89528,-2.33305 -13.87508,-20.50634 -14.64613,-20.50634 -0.71832,0 -14.99468,20.3877 -14.99468,21.413521 0,0.322559 6.798145,0.586479 15.10699,0.586479 12.98908,0 15.02663,-0.209399 14.53382,-1.49366 z"
       style="fill:#000000;stroke-width:1" />
  </g>
</svg>
