<?xml version="1.0" encoding="UTF-8"?>
<svg version="1.1" viewBox="0 0 163 157" xmlns="http://www.w3.org/2000/svg" xmlns:cc="http://creativecommons.org/ns#" xmlns:dc="http://purl.org/dc/elements/1.1/" xmlns:rdf="http://www.w3.org/1999/02/22-rdf-syntax-ns#">
<metadata>
<rdf:RDF>
<cc:Work rdf:about="">
<dc:format>image/svg+xml</dc:format>
<dc:type rdf:resource="http://purl.org/dc/dcmitype/StillImage"/>
<dc:title/>
</cc:Work>
</rdf:RDF>
</metadata>
<path d="m60.846 154.95c-12.83-2.481-21.859-5.1-31.933-9.2626-11.67-4.8222-24.189-12.02-25.119-14.443-0.37992-0.99004-0.69076-6.011-0.69076-11.158 0-25.756 7.5125-51.976 20.759-72.453 6.1793-9.5523 20.892-25.016 30.719-32.289 8.5094-6.2969 23.892-14.658 26.967-14.658 2.4492 0 14.751 6.3552 23.586 12.185 7.784 5.1362 22.397 18.999 28.522 27.058 17.122 22.527 26.418 50.887 26.418 80.595 0 6.1534-0.52111 10.448-1.4015 11.55-4.3262 5.4149-28.35 16.224-45.918 20.66-14.213 3.5886-39.276 4.6583-51.909 2.2155zm23.873-13.34c1.4112-2.6601 2.2678-5.6131 1.9036-6.5622-0.36419-0.94909-3.1153-2.8746-6.1136-4.2789-7.309-3.4233-9.5804-7.6367-8.7024-16.143l0.65415-6.3381-58.706 0.59753-0.32209 9.0294-0.32208 9.0294 9.8525 5.1567c16.65 8.7142 35.603 13.903 51.9 14.209 7.2899 0.13672 7.2899 0.13672 9.8557-4.6999zm-36.699-10.58c1.4858-1.6959 2.9875-3.4628 3.3371-3.9265 0.34961-0.46371 2.3482 0.92381 4.4413 3.0834l3.8057 3.9265h-14.285zm-15.763-10.934c2.0931-2.1596 4.0917-3.5471 4.4413-3.0834 0.34961 0.46371 1.8513 2.2306 3.3371 3.9265l2.7014 3.0834h-14.286zm85.211 21.145c5.2417-1.6018 14.722-5.4291 21.066-8.5052l11.536-5.5929-0.64736-18.257-61.965-0.59563-3.5565 4.0506c-1.9561 2.2278-3.3982 4.8846-3.2047 5.904 0.19345 1.0193 2.8299 3.1147 5.8588 4.6564 8.8879 4.5238 11.211 9.3959 9.1493 19.186l-0.8529 4.0499 6.5428-0.99229c3.5985-0.54574 10.831-2.3028 16.073-3.9046zm-2.2666-17.184c3.4223-4.8062 3.7674-4.8302 7.915-0.55089l3.7613 3.8807h-14.047zm-67.051-52.732c21.129-30.856 21.686-31.339 27.527-23.887 1.8388 2.3459 6.2764 8.6939 9.8614 14.107 3.585 5.4127 6.8806 9.7014 7.3236 9.5304 0.44297-0.17098 2.5239-2.5813 4.6243-5.3564 6.7956-8.9784 7.4461-8.5814 22.824 13.928l13.415 19.637 7.0077 0.03588c6.8123 0.03487 7.0077-0.04552 7.0077-2.8856 0-4.284-2.9072-14.785-6.6167-23.901-10.25-25.187-28.649-45.571-52.228-57.861l-7.4274-3.8714-5.8268 2.9425c-18.96 9.575-37.135 27.519-48.321 47.707-4.3567 7.8627-11.099 26.48-12.224 33.75l-0.65782 4.2544 14.9-0.66022zm32.176 19.075c3.8544-5.6817 5.7725-9.5425 5.3229-10.714-1.054-2.7467-14.413-21.815-15.283-21.815-0.8197 0-26.624 37.221-27.641 39.869-0.5229 1.3627 1.9078 1.6108 15.477 1.5798l16.097-0.03678zm40.102 7.2813c-1.0038-2.6159-15.557-22.992-16.422-22.992-0.8054 0-16.812 22.859-16.812 24.009 0 0.36166 7.6223 0.65758 16.938 0.65758 14.564 0 16.848-0.23478 16.296-1.6747z" stroke-width="1.1212"/>
</svg>
